#tb 0: 1/10
#media_type 0: video
#codec_id 0: gif
#dimensions 0: 217x217
#sar 0: 0/1
0,          0,          0,        1,     1341, 0xaa85adb1
0,          1,          1,        1,      305, 0xa970896f, F=0x0
0,          2,          2,        1,      446, 0x4a20d47a, F=0x0
0,          3,          3,        1,      458, 0x32ded2af, F=0x0
0,          4,          4,        1,      555, 0x622205e4, F=0x0
0,          5,          5,        1,      622, 0xde06214f, F=0x0
0,          6,          6,        1,      650, 0x8f482007, F=0x0
0,          7,          7,        1,      668, 0xd3df3a59, F=0x0
0,          8,          8,        1,      829, 0x812f80d4, F=0x0
0,          9,          9,        1,     1165, 0x8e402ff5, F=0x0
0,         10,         10,        1,      187, 0xdda45544, F=0x0
0,         11,         11,        1,     1341, 0x2f2d71cf, F=0x0
0,         12,         12,        1,     1646, 0xfe910a65, F=0x0
0,         13,         13,        1,     1539, 0xbc77e727, F=0x0
0,         14,         14,        1,     1728, 0x9bd9486b, F=0x0
0,         15,         15,        1,     1918, 0xcf948795, F=0x0
0,         16,         16,        1,     2132, 0x4618dbf8, F=0x0
0,         17,         17,        1,     2256, 0xcdce2bb0, F=0x0
0,         18,         18,        1,     2319, 0x4f1b36d7, F=0x0
0,         19,         19,        1,     2416, 0xcba76df1, F=0x0
0,         20,         20,        1,     2609, 0xb2eec38f, F=0x0
0,         21,         21,        1,     2695, 0x29d40439, F=0x0
0,         22,         22,        1,     2792, 0x663f0f16, F=0x0
0,         23,         23,        1,     2892, 0xd6924cc1, F=0x0
0,         24,         24,        1,     2990, 0x8bed794d, F=0x0
0,         25,         25,        1,     3109, 0x48789f36, F=0x0
0,         26,         26,        1,     3261, 0x3eaff7a0, F=0x0
0,         27,         27,        1,     3337, 0x3bcd1c99, F=0x0
0,         28,         28,        1,     3580, 0xcf0c8b7a, F=0x0
0,         29,         29,        1,     3815, 0x53d40009, F=0x0
0,         30,         30,        1,     2758, 0x73fd20c6, F=0x0
0,         31,         31,        1,     4039, 0xab517451, F=0x0
0,         32,         32,        1,     3033, 0x66d29fbc, F=0x0
0,         33,         33,        1,     4303, 0x30e50ba8, F=0x0
0,         34,         34,        1,     2052, 0x4843c19a, F=0x0
0,         35,         35,        1,     3220, 0x73f7f1b7, F=0x0
0,         36,         36,        1,     2300, 0xca376466, F=0x0
0,         37,         37,        1,     3641, 0x1e3a9bcb, F=0x0
0,         38,         38,        1,     3560, 0x014776da, F=0x0
0,         39,         39,        1,     3698, 0xd3bcde35, F=0x0
0,         40,         40,        1,     1567, 0x6c8bf458, F=0x0
0,         41,         41,        1,      962, 0x0389caed, F=0x0
0,         42,         42,        1,      281, 0x575f7959, F=0x0
0,         43,         43,        1,      938, 0x2d7aaf67, F=0x0
0,         44,         44,        1,      279, 0xd39d81d7, F=0x0
0,         45,         45,        1,      204, 0x90a9544a, F=0x0
0,         46,         46,        1,     4307, 0xcf9d0eae, F=0x0
0,         47,         47,        1,     4903, 0xe9743ace, F=0x0
0,         48,         48,        1,     4936, 0x3cf21510, F=0x0
0,         49,         49,        1,     4949, 0xcbff5648, F=0x0
0,         50,         50,        1,     4162, 0x94a9b9ce, F=0x0
0,         51,         51,        1,     4686, 0x5098c461, F=0x0
0,         52,         52,        1,     4749, 0x7304bc6d, F=0x0
0,         53,         53,        1,     4990, 0x9d025a9f, F=0x0
0,         54,         54,        1,     5187, 0x0566c4c9, F=0x0
0,         55,         55,        1,     5054, 0x574f81f5, F=0x0
0,         56,         56,        1,     5148, 0xe7bac30f, F=0x0
0,         57,         57,        1,     4309, 0x7844f361, F=0x0
0,         58,         58,        1,     5087, 0xacf4a406, F=0x0
0,         59,         59,        1,     5292, 0x9e7be109, F=0x0
0,         60,         60,        1,     5434, 0x85541f7f, F=0x0
0,         61,         61,        1,     4653, 0xf5118b09, F=0x0
0,         62,         62,        1,     5271, 0x54f3d911, F=0x0
0,         63,         63,        1,     5229, 0xc520cb6b, F=0x0
0,         64,         64,        1,     5225, 0x2a449e23, F=0x0
0,         65,         65,        1,     5403, 0x4a2502f3, F=0x0
0,         66,         66,        1,     5228, 0x8002e47d, F=0x0
0,         67,         67,        1,     5712, 0x9c9ed686, F=0x0
0,         68,         68,        1,     5644, 0xfdf5a30d, F=0x0
0,         69,         69,        1,     5826, 0xb142ece5, F=0x0
0,         70,         70,        1,     5771, 0xd22ac8b9, F=0x0
0,         71,         71,        1,     6124, 0x5e4e8f58, F=0x0
0,         72,         72,        1,     6077, 0x94ab6503, F=0x0
0,         73,         73,        1,     5804, 0x5c56e07a, F=0x0
0,         74,         74,        1,     6007, 0x3e453829, F=0x0
0,         75,         75,        1,     6228, 0xa4e0b278, F=0x0
0,         76,         76,        1,     6382, 0xd488ebcd, F=0x0
0,         77,         77,        1,     6473, 0xb1bb78b2, F=0x0
0,         78,         78,        1,     7027, 0x98ce29cb, F=0x0
0,         79,         79,        1,     7263, 0xecadb896, F=0x0
0,         80,         80,        1,     8205, 0x36cb6ba1, F=0x0
0,         81,         81,        1,     8366, 0xdbbe8308, F=0x0
0,         82,         82,        1,     7716, 0xd6959765, F=0x0
0,         83,         83,        1,     7420, 0x60fd1316, F=0x0
0,         84,         84,        1,     7549, 0x668a1ae9, F=0x0
0,         85,         85,        1,     7956, 0xe146cb65, F=0x0
0,         86,         86,        1,     8416, 0x47c3d590, F=0x0
0,         87,         87,        1,     8064, 0x9a0e249f, F=0x0
0,         88,         88,        1,     7409, 0x9e5eb771, F=0x0
0,         89,         89,        1,     7502, 0x1906fad6, F=0x0
0,         90,         90,        1,     7814, 0x8e117365, F=0x0
0,         91,         91,        1,     7776, 0xd0077a82, F=0x0
0,         92,         92,        1,     7757, 0x74a49d3a, F=0x0
0,         93,         93,        1,     8055, 0x70ef25d2, F=0x0
0,         94,         94,        1,     7626, 0x4a003537, F=0x0
0,         95,         95,        1,     7987, 0x1c14c607, F=0x0
0,         96,         96,        1,    12070, 0x4a729eba, F=0x0
0,         97,         97,        1,    12325, 0xbff1dd34, F=0x0
0,         98,         98,        1,    12225, 0xb1ffee58, F=0x0
0,         99,         99,        1,    11235, 0xea998fe1, F=0x0
0,        100,        100,        1,    11116, 0x855407b4, F=0x0
0,        101,        101,        1,    11374, 0xaa019a67, F=0x0
0,        102,        102,        1,    11904, 0xf8384969, F=0x0
0,        103,        103,        1,    11487, 0xce63834d, F=0x0
0,        104,        104,        1,    13403, 0x36444d9a, F=0x0
0,        105,        105,        1,    12921, 0x86af447b, F=0x0
0,        106,        106,        1,    13872, 0x104af758, F=0x0
0,        107,        107,        1,    13559, 0x37d07d0f, F=0x0
0,        108,        108,        1,    14049, 0xa47572e1, F=0x0
0,        109,        109,        1,    14152, 0x217c3e45, F=0x0
0,        110,        110,        1,    14285, 0xf37e5a5d, F=0x0
0,        111,        111,        1,    14432, 0xd841f100, F=0x0
0,        112,        112,        1,    14697, 0xf25cd254, F=0x0
0,        113,        113,        1,    14606, 0x4f3069dc, F=0x0
0,        114,        114,        1,    15221, 0x222f9680, F=0x0
0,        115,        115,        1,    15433, 0x3e43af1c, F=0x0
0,        116,        116,        1,    15603, 0x038a0ae1, F=0x0
0,        117,        117,        1,    15606, 0x9040acec, F=0x0
0,        118,        118,        1,    15871, 0xd63f0294, F=0x0
0,        119,        119,        1,    15725, 0xe95d42ec, F=0x0
0,        120,        120,        1,    16086, 0x27223bb4, F=0x0
0,        121,        121,        1,    16233, 0xebfca656, F=0x0
0,        122,        122,        1,    16143, 0x1a7717ba, F=0x0
0,        123,        123,        1,    16669, 0x56926ea6, F=0x0
0,        124,        124,        1,    16627, 0xe0ac5c7e, F=0x0
0,        125,        125,        1,    16837, 0x67b5c267, F=0x0
0,        126,        126,        1,    16952, 0x2d9bd2b7, F=0x0
0,        127,        127,        1,    17127, 0xcab06c88, F=0x0
0,        128,        128,        1,    17158, 0x10be3e59, F=0x0
0,        129,        129,        1,    17329, 0x53d2ef82, F=0x0
0,        130,        130,        1,    17403, 0x37a5ca9c, F=0x0
0,        131,        131,        1,    17674, 0x0e34434b, F=0x0
0,        132,        132,        1,    17738, 0xc1ef86db, F=0x0
0,        133,        133,        1,    17942, 0xbf37caa5, F=0x0
0,        134,        134,        1,    17952, 0x256e0aee, F=0x0
0,        135,        135,        1,    18246, 0xd818335f, F=0x0
0,        136,        136,        1,    18399, 0x6b84c5b2, F=0x0
0,        137,        137,        1,    18551, 0x5e02f360, F=0x0
0,        138,        138,        1,    18947, 0x5cdbdb83, F=0x0
0,        139,        139,        1,    19153, 0x97f52a72, F=0x0
0,        140,        140,        1,    19128, 0x537baaeb, F=0x0
0,        141,        141,        1,    19138, 0xa629eee4, F=0x0
0,        142,        142,        1,    19502, 0x4b8da41b, F=0x0
0,        143,        143,        1,    19542, 0x21a5a87a, F=0x0
0,        144,        144,        1,    19755, 0xc5d0c4a1, F=0x0
0,        145,        145,        1,    20122, 0x913a698c, F=0x0
0,        146,        146,        1,    20265, 0xfdbcdb4e, F=0x0
0,        147,        147,        1,    20378, 0x173f3952, F=0x0
0,        148,        148,        1,    20300, 0xff58f32f, F=0x0
0,        149,        149,        1,    20499, 0x89246e44, F=0x0
0,        150,        150,        1,    20655, 0xff78de6d, F=0x0
0,        151,        151,        1,    20674, 0x9ccbc9cc, F=0x0
0,        152,        152,        1,    21015, 0x289450a5, F=0x0
0,        153,        153,        1,    21066, 0x006d6bc5, F=0x0
0,        154,        154,        1,    21161, 0x306b4b03, F=0x0
0,        155,        155,        1,    21086, 0x5c4f8181, F=0x0
0,        156,        156,        1,    21466, 0x5be353c4, F=0x0
0,        157,        157,        1,    21677, 0xbc05e406, F=0x0
0,        158,        158,        1,    21589, 0xa69322d7, F=0x0
0,        159,        159,        1,    21662, 0x64e7ac40, F=0x0
0,        160,        160,        1,    21995, 0xbfa18826, F=0x0
0,        161,        161,        1,    22213, 0xb9fa745d, F=0x0
0,        162,        162,        1,    22483, 0x3070e144, F=0x0
0,        163,        163,        1,    22498, 0x1feb3894, F=0x0
0,        164,        164,        1,    22468, 0xb34dbd26, F=0x0
0,        165,        165,        1,    22869, 0x67c63638, F=0x0
0,        166,        166,        1,    22754, 0xaa2d573d, F=0x0
0,        167,        167,        1,    23173, 0x9f7767cb, F=0x0
0,        168,        168,        1,    23281, 0x3f319c01, F=0x0
0,        169,        169,        1,    23219, 0xb706632d, F=0x0
0,        170,        170,        1,    23656, 0x7e2ff143, F=0x0
0,        171,        171,        1,    23683, 0x729d61e1, F=0x0
0,        172,        172,        1,    23882, 0x8fb999ed, F=0x0
